<?xml version="1.0" encoding="utf-8"?>
<!-- Generator: Adobe Illustrator 22.1.0, SVG Export Plug-In . SVG Version: 6.00 Build 0)  -->
<svg version="1.1" id="city-of-bloomington-logo" xmlns="http://www.w3.org/2000/svg" xmlns:xlink="http://www.w3.org/1999/xlink"
	 x="0px" y="0px" viewBox="0 0 300 300" style="enable-background:new 0 0 300 300;" xml:space="preserve">
<style type="text/css">
	.st0{fill:#36499B;}
</style>
<polygon class="st0" points="64,43.9 45.5,25.7 45.5,45.6 25.6,45.6 42.7,65.2 25.6,82.2 82.2,82.2 82.2,25.7 "/>
<polygon class="st0" points="43.9,236 25.6,254.4 45.6,254.4 45.6,274.3 65.2,257.3 82.2,274.3 82.2,217.7 25.6,217.7 "/>
<polygon class="st0" points="256.1,64 274.3,45.6 254.4,45.6 254.4,25.6 234.8,42.7 217.7,25.6 217.7,82.2 274.3,82.2 "/>
<polygon class="st0" points="236,256.1 254.4,274.3 254.4,254.4 274.3,254.4 257.2,234.8 274.3,217.7 217.7,217.7 217.7,274.3 "/>
<polygon class="st0" points="113.8,121.7 85.5,93.4 28.9,93.4 56.7,122.1 0,122.1 28.9,150 0,179.2 56.7,179.2 28.9,206.6 
	85.5,206.6 113.8,178.3 85.5,150 "/>
<polygon class="st0" points="186.2,178.3 214.5,206.6 271.1,206.6 243.3,177.9 300,177.9 271.1,150 300,120.8 243.3,120.8 
	271.1,93.4 214.5,93.4 186.2,121.7 214.5,150 "/>
<polygon class="st0" points="178.3,113.8 206.6,85.5 206.6,28.9 177.9,56.7 177.9,0 150,28.9 120.8,0 120.8,56.7 93.4,28.9 
	93.4,85.5 121.7,113.8 150,85.5 "/>
<polygon class="st0" points="121.7,186.2 93.4,214.5 93.4,271.1 122.1,243.3 122.1,300 150,271.1 179.2,300 179.2,243.3 
	206.6,271.1 206.6,214.5 178.3,186.2 150,214.5 "/>
</svg>
